<svg xmlns="http://www.w3.org/2000/svg" viewBox="0 0 1023 1033" width="512" height="512">
    <defs>
        <radialGradient id="neoGradient" cx="0%" cy="60%" r="100%" gradientUnits="objectBoundingBox">
            <stop offset="0%" stop-color="#4FD1FF" />
            <stop offset="45%" stop-color="#5A7CFF" />
            <stop offset="95%" stop-color="#7A3CFF" />
        </radialGradient>
    </defs>
    <g transform="translate(0,1033) scale(0.1,-0.1)" fill="url(#neoGradient)" stroke="none" fill-rule="evenodd">
        <path d="M9985 10113 c-16 -9 -66 -37 -110 -63 -105 -63 -166 -97 -310 -174 -66 -36 -167 -90 -225 -121 -58 -31 -251 -128 -430 -216 -179 -88 -337 -166 -351 -174 -47 -26 -533 -236 -774 -335 -282 -116 -724 -287 -915 -355 -159 -56 -284 -101 -418 -151 -442 -166 -1716 -555 -2812 -858 -1198 -331 -1615 -494 -2135 -834 -164 -107 -222 -151 -365 -278 -144 -126 -211 -194 -315 -314 -77 -89 -221 -276 -292 -380 -44 -65 -171 -303 -179 -337 -4 -15 -17 -48 -29 -73 -13 -25 -33 -79 -45 -120 -12 -41 -26 -79 -30 -85 -4 -5 -10 -30 -13 -55 -3 -25 -13 -85 -22 -135 -31 -162 -5 -341 66 -461 44 -74 134 -171 218 -234 76 -58 237 -142 363 -190 120 -47 126 -53 138 -130 32 -210 143 -565 248 -795 122 -267 254 -479 448 -715 284 -347 589 -585 1033 -808 l193 -97 -5 -60 c-2 -33 -14 -118 -26 -190 -44 -257 -183 -985 -206 -1075 -8 -31 -12 -66 -8 -79 5 -20 10 -22 42 -16 20 4 131 51 246 105 116 54 280 129 365 168 85 38 227 103 315 144 88 41 185 86 215 100 216 100 279 128 285 128 4 0 93 40 198 89 106 49 332 153 502 231 699 321 1098 541 1361 752 100 79 339 319 422 422 109 135 213 299 302 474 29 56 57 105 64 110 6 5 65 19 131 31 335 62 617 147 830 251 240 116 397 229 590 424 274 275 443 607 554 1087 45 194 62 297 50 305 -11 7 -31 -5 -154 -86 -312 -209 -685 -391 -1045 -513 -250 -84 -586 -167 -679 -167 -41 0 -41 0 -41 38 0 35 20 200 42 345 12 81 -10 68 248 142 670 192 1188 459 1531 787 260 248 462 574 591 953 81 237 146 523 159 705 5 63 11 143 15 178 6 57 5 62 -13 62 -10 0 -48 -24 -83 -53 -173 -143 -494 -366 -675 -470 -292 -167 -678 -354 -955 -465 -255 -101 -791 -282 -838 -282 -30 0 -30 1 -42 73 -6 39 -18 106 -26 147 -8 41 -18 114 -21 161 l-6 86 49 18 c27 10 76 28 109 40 33 12 139 51 235 85 96 35 199 74 228 87 29 13 92 39 140 57 263 101 694 327 887 464 342 244 533 432 701 686 195 298 329 624 409 996 13 63 29 130 34 148 6 19 15 79 22 135 6 56 19 143 29 192 21 101 38 495 24 532 -9 20 -10 21 -39 6z m-5286 -3493 c315 -55 633 -172 875 -322 161 -100 284 -195 415 -323 275 -268 438 -513 575 -862 143 -367 177 -893 85 -1308 -59 -262 -227 -647 -361 -825 -246 -326 -407 -478 -712 -669 -141 -89 -195 -116 -361 -184 -197 -81 -364 -120 -640 -152 -166 -19 -300 -19 -465 0 -339 40 -554 99 -818 225 -300 145 -592 370 -810 627 -85 101 -252 355 -305 466 -105 217 -207 557 -207 690 0 34 -7 103 -16 152 -17 96 -14 309 6 360 6 15 10 55 10 90 0 179 140 624 254 803 14 23 26 46 26 52 0 17 116 187 195 285 116 145 187 221 287 307 394 342 842 541 1363 603 169 20 443 13 604 -15z"/>
        <path d="M4219 6146 c-2 -2 -62 -12 -134 -21 -295 -37 -547 -133 -818 -312 -310 -204 -520 -459 -674 -818 -135 -314 -173 -651 -114 -997 44 -254 186 -583 341 -790 102 -136 258 -293 380 -383 126 -92 112 -84 295 -175 272 -137 459 -184 779 -200 240 -11 289 -8 466 32 329 74 579 195 825 399 81 67 205 193 253 258 15 20 30 38 33 41 13 11 119 178 119 188 0 6 4 12 9 14 16 6 112 220 151 336 21 64 51 173 67 242 26 117 28 139 27 350 0 208 -2 234 -28 350 -84 378 -226 650 -480 917 -232 244 -558 436 -865 510 -131 31 -392 62 -527 63 -55 0 -103 -2 -105 -4z m-465 -630 c57 -17 139 -65 361 -211 94 -61 325 -207 515 -325 911 -563 909 -562 937 -627 19 -47 16 -143 -6 -196 -24 -56 -45 -72 -266 -200 -297 -172 -907 -532 -981 -579 -150 -96 -447 -270 -509 -300 -54 -25 -75 -30 -115 -26 -58 6 -127 47 -160 95 -50 74 -50 64 -50 1163 0 656 4 1038 10 1061 16 59 52 101 109 131 60 32 88 34 155 14z"/>
    </g>
</svg>